<mxfile host="app.diagrams.net" agent="Mozilla/5.0 (Macintosh; Intel Mac OS X 10_15_7) AppleWebKit/537.36 (KHTML, like Gecko) Chrome/136.0.0.0 Safari/537.36" version="26.3.0">
  <diagram name="Page-1" id="GrlLbOBvr6fniatr63W6">
    <mxGraphModel dx="848" dy="615" grid="1" gridSize="10" guides="1" tooltips="1" connect="1" arrows="1" fold="1" page="1" pageScale="1" pageWidth="827" pageHeight="1169" math="0" shadow="0">
      <root>
        <mxCell id="0" />
        <mxCell id="1" parent="0" />
        <mxCell id="GO9LhJ0VnKv5WEZ5KxEu-8" style="edgeStyle=orthogonalEdgeStyle;rounded=0;orthogonalLoop=1;jettySize=auto;html=1;entryX=0;entryY=0.5;entryDx=0;entryDy=0;" edge="1" parent="1" source="GO9LhJ0VnKv5WEZ5KxEu-1" target="GO9LhJ0VnKv5WEZ5KxEu-2">
          <mxGeometry relative="1" as="geometry" />
        </mxCell>
        <mxCell id="GO9LhJ0VnKv5WEZ5KxEu-1" value="Scheduled trigger" style="rounded=1;whiteSpace=wrap;html=1;" vertex="1" parent="1">
          <mxGeometry x="40" y="160" width="120" height="40" as="geometry" />
        </mxCell>
        <mxCell id="GO9LhJ0VnKv5WEZ5KxEu-9" style="edgeStyle=orthogonalEdgeStyle;rounded=0;orthogonalLoop=1;jettySize=auto;html=1;dashed=1;" edge="1" parent="1" source="GO9LhJ0VnKv5WEZ5KxEu-2" target="GO9LhJ0VnKv5WEZ5KxEu-3">
          <mxGeometry relative="1" as="geometry">
            <Array as="points">
              <mxPoint x="300" y="100" />
            </Array>
          </mxGeometry>
        </mxCell>
        <mxCell id="GO9LhJ0VnKv5WEZ5KxEu-2" value="List endpoints" style="rounded=1;whiteSpace=wrap;html=1;dashed=1;" vertex="1" parent="1">
          <mxGeometry x="120" y="80" width="120" height="40" as="geometry" />
        </mxCell>
        <mxCell id="GO9LhJ0VnKv5WEZ5KxEu-6" style="edgeStyle=orthogonalEdgeStyle;rounded=0;orthogonalLoop=1;jettySize=auto;html=1;" edge="1" parent="1" source="GO9LhJ0VnKv5WEZ5KxEu-3" target="GO9LhJ0VnKv5WEZ5KxEu-4">
          <mxGeometry relative="1" as="geometry" />
        </mxCell>
        <mxCell id="GO9LhJ0VnKv5WEZ5KxEu-13" style="edgeStyle=orthogonalEdgeStyle;rounded=0;orthogonalLoop=1;jettySize=auto;html=1;dashed=1;" edge="1" parent="1" source="GO9LhJ0VnKv5WEZ5KxEu-3" target="GO9LhJ0VnKv5WEZ5KxEu-2">
          <mxGeometry relative="1" as="geometry">
            <Array as="points">
              <mxPoint x="180" y="180" />
            </Array>
          </mxGeometry>
        </mxCell>
        <mxCell id="GO9LhJ0VnKv5WEZ5KxEu-3" value="Call endpoint OPTIONS" style="rounded=1;whiteSpace=wrap;html=1;" vertex="1" parent="1">
          <mxGeometry x="240" y="160" width="120" height="40" as="geometry" />
        </mxCell>
        <mxCell id="GO9LhJ0VnKv5WEZ5KxEu-4" value="Webhook Teams" style="rounded=1;whiteSpace=wrap;html=1;" vertex="1" parent="1">
          <mxGeometry x="440" y="160" width="120" height="40" as="geometry" />
        </mxCell>
        <mxCell id="GO9LhJ0VnKv5WEZ5KxEu-7" value="Results &lt;br&gt;List endpoints" style="rounded=1;whiteSpace=wrap;html=1;dashed=1;" vertex="1" parent="1">
          <mxGeometry x="440" y="80" width="120" height="40" as="geometry" />
        </mxCell>
      </root>
    </mxGraphModel>
  </diagram>
</mxfile>
